<svg width="80" height="22" fill="none" xmlns="http://www.w3.org/2000/svg"><mask id="a" style="mask-type:alpha" maskUnits="userSpaceOnUse" x="0" y="0" width="80" height="22"><path d="M.316 1.505C.222 1.057.175.832.216.653A.84.84 0 01.683.077C.851 0 1.08 0 1.538 0H77.4c1.201 0 1.802 0 2.117.39.315.39.189.978-.064 2.152l-3.689 17.133c-.17.795-.256 1.192-.545 1.425-.289.233-.695.233-1.508.233H24.747c-6.291 0-9.437 0-12.093-.914a16.8 16.8 0 01-8.955-7.267C2.26 10.74 1.611 7.662.316 1.505z" fill="#8365FC"/></mask><g mask="url(#a)"><path d="M.316 1.505C.222 1.057.175.832.216.653A.84.84 0 01.683.077C.851 0 1.08 0 1.538 0H77.4c1.201 0 1.802 0 2.117.39.315.39.189.978-.064 2.152L76.12 18.017c-.342 1.59-.513 2.384-1.09 2.85-.578.466-1.39.466-3.016.466H24.748c-6.291 0-9.437 0-12.093-.914a16.8 16.8 0 01-8.955-7.267C2.26 10.74 1.611 7.662.316 1.505z" fill="#8365FC"/><path d="M40.177 6.175c-1.17 0-2.675.649-3.938 2.168l-.075-.037.678-1.353-1.55-.76-6.299 12.61 1.58.769 2.582-5.17c2.015-4.04 5.146-6.448 6.492-6.448.474 0 .744.24.744.741 0 1.52-1.97 3.243-4.552 3.9l-.873.223.38 1.677.41-.083c3.622-.714 6.465-3.03 6.51-5.985.029-1.353-.659-2.252-2.089-2.252zM31.464 12.178l.158-.213-1.282-1.074-.148.194c-.79 1-1.672 1.483-2.954 1.483-.056 0-.112-.01-.168-.01a30.284 30.284 0 003.14-5.318l.14-.305-1.533-.75-.205.416c-1.096 2.242-2.09 3.882-3.25 5.346-.864-.815-1.06-2.363-.688-4.225l-1.58-.546c-2.674 4.558-5.303 6.439-8.47 6.439-1.31 0-1.747-.52-1.747-1.483v-.083l.418.028c3.67.259 6.354-1.316 6.354-3.799 0-1.334-.92-2.103-2.443-2.103-2.304 0-4.551 1.751-5.573 3.79l-1.208-.983a5.415 5.415 0 01-4.143 2.048A5.463 5.463 0 012.047 9.12L.709 10.28c1.468 1.751 3.54 2.41 5.573 2.381 1.998-.027 3.772-.806 4.998-2.094l.074.037a4.788 4.788 0 00-.26 1.631c0 1.844 1.096 3.122 3.205 3.122 3.631 0 6.353-1.89 8.647-5.003l.084.019c.037 1.056.53 2.15 1.272 2.835-.631.787-1.151 1.325-1.978 2.103l-.4.37 1.347 1.13.381-.37a35.335 35.335 0 002.23-2.38c.297.055.622.083 1.021.083 1.905.009 3.567-.658 4.561-1.965zm-14.397-4.27c.455 0 .706.24.706.583 0 1.186-1.561 2.214-4.106 2.066l-.325-.018c.808-1.501 2.387-2.632 3.725-2.632zM52.382 12.086c3.67.26 6.354-1.417 6.354-3.798 0-1.436-.92-2.103-2.443-2.103-3.13 0-6.103 3.03-6.103 6.05 0 1.843 1.17 3.122 3.344 3.122 1.477 0 2.963-.408 4.031-1.13l-.798-1.52c-.79.565-1.886.917-2.908.917-1.18 0-1.895-.518-1.895-1.482v-.083l.418.027zm3.772-4.178c.455 0 .705.24.705.584 0 1.186-1.57 2.214-4.105 2.066l-.325-.019c.817-1.5 2.396-2.63 3.724-2.63zM72.334 7.908l.576-.074-.167-1.705-.641.074c-2.062.232-3.214.89-3.428 2.26L66.14 9.919l.78 1.455 1.941-1.093c.037.12.074.231.112.352l.418 1.25c.102.297.157.566.157.844 0 .481-.38.88-1.476.898-.54.01-1.227-.065-1.858-.333l-.576 1.686a7 7 0 002.239.37c2.359 0 3.464-1.111 3.464-2.575 0-.482-.083-.899-.316-1.594l-.25-.769c-.14-.426-.326-.954-.326-1.37 0-.622.595-.964 1.886-1.131zM50.562 6.175c-1.654.38-3.102 1.177-4.273 2.446l-.074-.037.817-1.64-1.551-.76-4.208 8.385 1.589.778.984-1.927c1.746-3.418 4.273-4.854 7.218-5.429l-.502-1.816zM65.127 7.963l.566-.231-.585-1.585-.53.204c-.863.334-2.257 1-3.074 1.436l-1.876 1.01.78 1.455 1.811-.973c.01.408.093.861.251 1.427l.149.556c.12.444.25.861.25 1.223 0 .667-.427 1.139-1.31 1.139-.51 0-.974-.158-1.355-.843l-1.477.982c.65 1.13 1.598 1.584 2.842 1.584 1.737 0 3.093-1.037 3.093-2.742 0-.37-.102-.88-.288-1.538l-.223-.806c-.102-.352-.213-.732-.213-1.066.009-.49.195-.833 1.189-1.232z" fill="#fff"/></g></svg>